<svg id="shopping_guide_icon" data-name="shopping guide icon" xmlns="http://www.w3.org/2000/svg" xmlns:xlink="http://www.w3.org/1999/xlink" width="66" height="55" viewBox="0 0 66 55">
  <defs>
    <clipPath id="clip-path">
      <rect id="Rectangle_248" data-name="Rectangle 248" width="66" height="55" fill="none" stroke="#fff" stroke-width="1"/>
    </clipPath>
  </defs>
  <g id="Group_32" data-name="Group 32" clip-path="url(#clip-path)">
    <path id="Path_69" data-name="Path 69" d="M55.372,3.76a5.6,5.6,0,0,1,3.634,5.23V37.266a.352.352,0,0,1-.353.35H7.126a.352.352,0,0,1-.353-.35V8.99a5.605,5.605,0,0,1,3.868-5.313" transform="translate(-0.773 -0.362)" fill="none" stroke="#fff" stroke-linecap="round" stroke-linejoin="round" stroke-width="1"/>
    <path id="Path_70" data-name="Path 70" d="M52.334,21.076v4.461a2.369,2.369,0,0,1-2.38,2.358H39.18l-5.118,5.2-5.118-5.2H18.17a2.369,2.369,0,0,1-2.38-2.358V2.858A2.369,2.369,0,0,1,18.17.5H49.955a2.369,2.369,0,0,1,2.38,2.358V14.968" transform="translate(-1.79 -0.049)" fill="none" stroke="#fff" stroke-linecap="round" stroke-linejoin="round" stroke-width="1"/>
    <path id="Path_71" data-name="Path 71" d="M58.441,41.318l6.9,13.94A2.309,2.309,0,0,1,63.549,58.6c-.074.006-.149.01-.225.01H2.808c-.076,0-.151,0-.226-.01a2.356,2.356,0,0,1-1.9-3.273l3.981-9.493" transform="translate(-0.045 -4.064)" fill="none" stroke="#fff" stroke-linecap="round" stroke-linejoin="round" stroke-width="1"/>
    <line id="Line_3" data-name="Line 3" x2="42.19" transform="translate(11.545 42.989)" fill="none" stroke="#fff" stroke-linecap="round" stroke-linejoin="round" stroke-width="1"/>
    <line id="Line_4" data-name="Line 4" x2="9.678" transform="translate(27.801 48.405)" fill="none" stroke="#fff" stroke-linecap="round" stroke-linejoin="round" stroke-width="1"/>
    <g id="question" transform="translate(15.466 -2.875)">
      <path id="Path_341" data-name="Path 341" d="M11.813,12.39h2.353A2.276,2.276,0,0,1,16.59,9.923,2.07,2.07,0,0,1,18.93,12c0,1.132-.667,1.653-1.72,2.444a4.061,4.061,0,0,0-2.082,3.542l.013.826h2.33v-.633c0-1.279.486-1.653,1.8-2.649,1.085-.826,2.217-1.741,2.217-3.665,0-2.694-2.275-3.994-4.765-3.994-2.364,0-4.967,1.153-4.909,4.515ZM14.6,22.222a1.679,1.679,0,0,0,1.8,1.653,1.672,1.672,0,1,0,0-3.328,1.676,1.676,0,0,0-1.8,1.676Z" transform="translate(0 1)" fill="#fff"/>
    </g>
  </g>
</svg>
