<?xml version="1.0" encoding="utf-8"?>
<!-- Generator: Adobe Illustrator 26.0.1, SVG Export Plug-In . SVG Version: 6.00 Build 0)  -->
<svg version="1.1" id="add_to_cart_icon" xmlns="http://www.w3.org/2000/svg" xmlns:xlink="http://www.w3.org/1999/xlink" x="0px"
	 y="0px" viewBox="0 0 21.2 21.2" style="enable-background:new 0 0 21.2 21.2;" xml:space="preserve">
<path d="M20.9,4.8H5.5l-0.8-3C4.6,1.7,4.5,1.6,4.4,1.6H0.3C0.1,1.6,0,1.7,0,1.9C0,2,0.1,2.2,0.3,2.2h3.9l3.6,13.4
	c0,0.1,0.1,0.2,0.3,0.2h10.1c0.2,0,0.3-0.1,0.3-0.3s-0.1-0.3-0.3-0.3h-10l-0.5-2.1h10.4c0.1,0,0.2-0.1,0.3-0.2l2.8-7.8
	c0-0.1,0-0.2,0-0.3C21.1,4.8,21,4.8,20.9,4.8 M11.1,12.6l-0.4-3.4h4.2l-0.4,3.4H11.1z M10.6,8.7l-0.4-3.3h5.3L15,8.7H10.6z M9.6,5.3
	L10,8.7H6.5L5.6,5.3H9.6z M6.6,9.2h3.5l0.4,3.4h-3L6.6,9.2z M17.9,12.6H15l0.4-3.4h3.7L17.9,12.6z M19.3,8.7h-3.8L16,5.3h4.6
	L19.3,8.7z M8.9,19.6c-0.9,0-1.6-0.7-1.6-1.6s0.7-1.7,1.6-1.7c0.8,0,1.5,0.7,1.6,1.6C10.5,18.9,9.8,19.6,8.9,19.6z M8.9,16.9
	c-0.7,0-1.1,0.5-1.1,1.2c0,0.7,0.5,1.1,1.1,1.1S10,18.7,10,18C10,17.4,9.5,16.9,8.9,16.9z M17.3,19.6c-0.9,0-1.6-0.7-1.6-1.6
	s0.7-1.7,1.6-1.7S19,17.1,19,18S18.2,19.6,17.3,19.6z M17.3,16.9c-0.7,0-1.1,0.5-1.1,1.2c0,0.7,0.5,1.1,1.1,1.1
	c0.7,0,1.2-0.5,1.2-1.1C18.5,17.3,18,16.9,17.3,16.9z"/>
</svg>
