<?xml version="1.0" encoding="utf-8"?>
<!-- Generator: Adobe Illustrator 26.0.1, SVG Export Plug-In . SVG Version: 6.00 Build 0)  -->
<svg version="1.1" id="Layer_1" xmlns="http://www.w3.org/2000/svg" xmlns:xlink="http://www.w3.org/1999/xlink" x="0px" y="0px"
	 viewBox="0 0 35 47" style="enable-background:new 0 0 35 47;" xml:space="preserve">
<style type="text/css">
	.st0{fill:#F2DB85;}
	.st1{fill:none;stroke:#233A70;stroke-linecap:round;stroke-linejoin:round;}
	.st2{fill:#F2DB85;stroke:#233A70;stroke-linejoin:round;}
	.st3{fill:none;stroke:#233A70;stroke-linejoin:round;}
</style>
<g id="heat_protection" transform="translate(-0.751 -0.75)">
	<path id="Path_93" class="st0" d="M20.4,47.2c5.3-3.2,6-6.7,6.2-9.1c0.2-2.5-0.3-4.8-4.2-8.1c0,0-4.3-3.2-2.9-9.7
		c-1.9,1.7-3.2,3.9-3.8,6.4c-1.1,4.3-2.4,3.6-4.1,5.8s-3.3,4.2-1.4,8.9s4.7,5.8,4.7,5.8L20.4,47.2z"/>
	<path id="Path_87" class="st1" d="M30.7,23.1c-1,3.4-2.8,3.2-2.8,3.2c-3.8,0-2-6-2-6C28.7,8.4,14.5,1.2,14.5,1.2s2.8,7.8-1.9,12.6
		c-4.1,4.2-11.3,10-11.3,17.7c0,1.9-0.6,11,13.4,15.7"/>
	<path id="Path_88" class="st1" d="M20.2,47.2c25.2-7.1,11.1-29.6,11.1-29.6"/>
	<path id="Path_89" class="st2" d="M15.8,26.7c0.6-2.5,1.9-4.7,3.8-6.4c-1.4,6.5,2.9,9.7,2.9,9.7c3.9,3.3,4.4,5.7,4.2,8.1
		s-1,5.9-6.2,9.1"/>
	<path id="Path_90" class="st3" d="M17.3,37.6c0.3-5.9-5.3-10.4-5.3-10.4c1,2.4,0.5,5.2-1.3,7c0,0-2.9,2.8-0.2,7.4"/>
</g>
</svg>
