<?xml version="1.0" encoding="utf-8"?>
<!-- Generator: Adobe Illustrator 26.0.1, SVG Export Plug-In . SVG Version: 6.00 Build 0)  -->
<svg version="1.1" id="Layer_1" xmlns="http://www.w3.org/2000/svg" xmlns:xlink="http://www.w3.org/1999/xlink" x="0px" y="0px"
	 viewBox="0 0 45.1 37.4" style="enable-background:new 0 0 45.1 37.4;" xml:space="preserve">
<style type="text/css">
	.st0{fill:none;stroke:#233A70;stroke-linecap:round;stroke-linejoin:round;}
</style>
<g id="wind_protection" transform="translate(-0.458 -0.458)">
	<path id="Path_77" class="st0" d="M14.4,7.7c0-3.7,3-6.7,6.7-6.7s6.7,3,6.7,6.7s-3,6.7-6.7,6.7H1"/>
	<path id="Path_78" class="st0" d="M22,30.7c0,3.7,3,6.7,6.7,6.7c3.7,0,6.7-3,6.7-6.7c0-3.7-3-6.7-6.7-6.7H1"/>
	<path id="Path_79" class="st0" d="M33.5,12.5c0-3.2,2.6-5.8,5.8-5.8c3.2,0,5.8,2.6,5.8,5.8s-2.6,5.8-5.8,5.8H27.8"/>
</g>
</svg>
