<?xml version="1.0" encoding="utf-8"?>
<!-- Generator: Adobe Illustrator 26.0.1, SVG Export Plug-In . SVG Version: 6.00 Build 0)  -->
<svg version="1.1" id="sun_protection_icon" xmlns="http://www.w3.org/2000/svg" xmlns:xlink="http://www.w3.org/1999/xlink"
	 x="0px" y="0px" viewBox="0 0 47 47" style="enable-background:new 0 0 47 47;" xml:space="preserve">
<style type="text/css">
	.st0{fill:#FFFFFF;stroke:#233A70;stroke-linecap:round;stroke-linejoin:round;}
	.st1{fill:#F2DB85;stroke:#233A70;stroke-linecap:round;stroke-linejoin:round;}
</style>
<path id="Path_76" class="st0" d="M41.4,16.1c-1.8-0.2-3.7-1.3-4-3.2s1.1-4.4,2.4-5.7c-1.3,1.3-3.8,2.8-5.7,2.4s-3-2.3-3.2-4l0,0
	c-1.4,1.1-3.5,1.7-5.1,0.6s-2.3-3.9-2.3-5.8c0,1.8-0.7,4.7-2.3,5.7s-3.7,0.5-5.1-0.6l0,0c-0.2,1.8-1.3,3.7-3.2,4S8.5,8.5,7.2,7.2
	c1.3,1.3,2.8,3.8,2.4,5.7s-2.3,3-4,3.2l0,0c1.1,1.4,1.7,3.5,0.6,5.1s-3.9,2.3-5.8,2.3c1.8,0,4.7,0.7,5.7,2.3s0.5,3.7-0.6,5.1l0,0
	c1.8,0.2,3.7,1.3,4,3.2s-1.1,4.4-2.4,5.7c1.3-1.3,3.8-2.8,5.7-2.4s3,2.3,3.2,4l0,0c1.4-1.1,3.5-1.7,5.1-0.6s2.3,3.9,2.3,5.7
	c0-1.8,0.7-4.7,2.3-5.7s3.7-0.5,5.1,0.6l0,0c0.2-1.8,1.3-3.7,3.2-4s4.4,1.1,5.7,2.4c-1.3-1.3-2.8-3.8-2.4-5.7s2.3-3,4-3.2l0,0
	c-1.1-1.4-1.7-3.5-0.6-5.1s3.9-2.3,5.7-2.3c-1.8,0-4.7-0.7-5.7-2.3S40.2,17.4,41.4,16.1L41.4,16.1z"/>
<ellipse id="Ellipse_59" class="st1" cx="23.5" cy="23.5" rx="12.1" ry="12.1"/>
</svg>
