<?xml version="1.0" encoding="utf-8"?>
<!-- Generator: Adobe Illustrator 26.0.1, SVG Export Plug-In . SVG Version: 6.00 Build 0)  -->
<svg version="1.1" id="rain_protection" xmlns="http://www.w3.org/2000/svg" xmlns:xlink="http://www.w3.org/1999/xlink" x="0px"
	 y="0px" viewBox="0 0 47 47" style="enable-background:new 0 0 47 47;" xml:space="preserve">
<style type="text/css">
	.st0{fill:#FFFFFF;stroke:#233A70;stroke-linecap:round;stroke-linejoin:round;}
	.st1{fill:none;stroke:#233A70;stroke-linecap:round;stroke-linejoin:round;}
</style>
<path id="Path_80" class="st0" d="M40.2,19.5c0.5-0.2,1.1-0.3,1.7-0.3c2.6,0,4.6,2.2,4.6,4.7c0,2.5-2.1,4.6-4.6,4.6h-34
	c-4.1-0.1-7.4-3.5-7.3-7.6c0.1-4,3.3-7.3,7.3-7.3c0.8,0,1.6,0.1,2.4,0.4l0,0c-1.8-5.3,1-11.1,6.3-12.9s11.1,1,12.9,6.3
	c0.4,1.1,0.6,2.3,0.6,3.5c0,0.4,0,0.7-0.1,1.1c1.2-1.3,2.9-2.1,4.7-2.1c3.6,0,6.5,3,6.4,6.5C41,17.5,40.7,18.6,40.2,19.5z"/>
<line id="Line_5" class="st1" x1="12.5" y1="32.5" x2="10.5" y2="38.5"/>
<line id="Line_6" class="st1" x1="18.5" y1="40.5" x2="16.5" y2="46.5"/>
<line id="Line_7" class="st1" x1="28.5" y1="32.5" x2="26.5" y2="38.5"/>
<line id="Line_8" class="st1" x1="34.5" y1="40.5" x2="32.5" y2="46.5"/>
</svg>
