<?xml version="1.0" encoding="utf-8"?>
<!-- Generator: Adobe Illustrator 26.0.1, SVG Export Plug-In . SVG Version: 6.00 Build 0)  -->
<svg version="1.1" id="add_to_cart_icon" xmlns="http://www.w3.org/2000/svg" xmlns:xlink="http://www.w3.org/1999/xlink" x="0px"
	 y="0px" viewBox="0 0 32 32" style="enable-background:new 0 0 32 32;" xml:space="preserve">
<path d="M31.6,7.2H8.2L7,2.7c0-0.2-0.2-0.3-0.4-0.3H0.4C0.2,2.4,0,2.6,0,2.9c0,0.2,0.2,0.4,0.4,0.4h5.9l5.4,20.2
	c0,0.2,0.2,0.3,0.4,0.3h15.2c0.2,0,0.4-0.2,0.4-0.4c0-0.2-0.2-0.4-0.4-0.4H12.4l-0.8-3.1h15.7c0.2,0,0.3-0.1,0.4-0.3L32,7.8
	c0-0.1,0-0.3,0-0.4C31.8,7.3,31.7,7.2,31.6,7.2 M16.7,19l-0.7-5.1h6.4L21.8,19H16.7z M16,13.1L15.3,8h7.9l-0.6,5.1L16,13.1z M14.5,8
	l0.7,5.1H9.8L8.5,8H14.5z M10,13.9h5.2l0.7,5.1h-4.5L10,13.9z M27,19h-4.4l0.7-5.1h5.5L27,19z M29.2,13.1h-5.7L24.1,8H31L29.2,13.1z
	 M13.4,29.6C13.4,29.6,13.4,29.6,13.4,29.6c-1.4,0-2.5-1.1-2.4-2.5c0-1.3,1.1-2.4,2.4-2.4c0,0,0,0,0,0l0,0c1.3,0,2.4,1.1,2.4,2.4
	c0,0.7-0.3,1.3-0.7,1.7C14.6,29.3,14,29.6,13.4,29.6z M13.4,25.5c-0.9,0-1.7,0.7-1.7,1.7c0,0.9,0.7,1.7,1.7,1.7c0,0,0,0,0,0
	c0.4,0,0.9-0.2,1.2-0.5c0.3-0.3,0.5-0.7,0.5-1.2C15.1,26.2,14.3,25.5,13.4,25.5L13.4,25.5C13.4,25.5,13.4,25.5,13.4,25.5z
	 M26.1,29.6C26.1,29.6,26.1,29.6,26.1,29.6c-1.4,0-2.5-1.1-2.4-2.5c0-1.3,1.1-2.4,2.4-2.4c0,0,0,0,0,0l0,0c1.3,0,2.4,1.1,2.4,2.4
	C28.6,28.5,27.5,29.6,26.1,29.6z M26.1,25.5c-0.9,0-1.7,0.7-1.7,1.7c0,0.9,0.7,1.7,1.7,1.7c0.4,0,0.9-0.2,1.2-0.5
	c0.3-0.3,0.5-0.7,0.5-1.2C27.8,26.2,27.1,25.5,26.1,25.5L26.1,25.5C26.1,25.5,26.1,25.5,26.1,25.5z"/>
</svg>
