<?xml version="1.0" encoding="utf-8"?>
<!-- Generator: Adobe Illustrator 26.0.1, SVG Export Plug-In . SVG Version: 6.00 Build 0)  -->
<svg version="1.1" id="Layer_1" xmlns="http://www.w3.org/2000/svg" xmlns:xlink="http://www.w3.org/1999/xlink" x="0px" y="0px"
	 viewBox="0 0 17 17" style="enable-background:new 0 0 17 17;" xml:space="preserve">
<path id="email_icon" transform="translate(-2.875 -6.25)" d="M4.9,21.2c-1.1,0-2-0.9-2-2v-9c0-1.1,0.9-2,2-2c0,0,0,0,0,0h12.9
	c0,0,0,0,0,0c1.1,0,2,0.9,2,2v9c0,1.1-0.9,2-2,2c0,0,0,0,0,0H4.9C4.9,21.2,4.9,21.2,4.9,21.2z M4.9,9.2c-0.6,0-1,0.4-1,1v9
	c0,0.6,0.5,1,1,1h12.9c0,0,0,0,0,0c0.6,0,1-0.4,1-1v-9c0-0.6-0.5-1-1-1c0,0,0,0,0,0H4.9C4.9,9.2,4.9,9.2,4.9,9.2z M11.7,15.8
	l5.5-4.3c0.2-0.2,0.3-0.5,0.1-0.7c-0.2-0.2-0.5-0.3-0.7-0.1l-5.2,4.1l-5.2-4.1c-0.2-0.2-0.5-0.1-0.7,0.1c-0.2,0.2-0.1,0.5,0.1,0.7
	l5.5,4.3c0.1,0.1,0.2,0.1,0.3,0.1S11.6,15.9,11.7,15.8z"/>
</svg>
