<?xml version="1.0" encoding="utf-8"?>
<!-- Generator: Adobe Illustrator 26.0.1, SVG Export Plug-In . SVG Version: 6.00 Build 0)  -->
<svg version="1.1" id="Layer_1" xmlns="http://www.w3.org/2000/svg" xmlns:xlink="http://www.w3.org/1999/xlink" x="0px" y="0px"
	 viewBox="0 0 16 16" style="enable-background:new 0 0 16 16;" xml:space="preserve">
<path id="phone_icon" d="M12.4,16c-0.2,0-0.3,0-0.5-0.1c-2.9-0.6-5.6-2.1-7.7-4.1C2.1,9.7,0.7,7,0,4.1c-0.2-0.7,0.1-1.5,0.6-2
	l1.9-1.8C2.7,0.1,3,0,3.2,0c0.3,0,0.5,0.2,0.7,0.4l2.3,3.5c0.2,0.3,0.2,0.6-0.1,0.9L5,6.2c0.3,0.6,0.6,1.2,1,1.8
	c0.3,0.4,0.6,0.7,0.9,1c0.8,0.8,1.8,1.5,2.8,1.9l1.4-1.2c0.2-0.2,0.6-0.2,0.9-0.1l3.5,2.3c0.2,0.2,0.4,0.4,0.4,0.7
	c0,0.3-0.1,0.6-0.3,0.8l-1.8,1.8C13.5,15.8,13,16,12.4,16L12.4,16z M3.2,0.9L1.3,2.8C1,3.1,0.9,3.5,1,3.9c0.6,2.7,1.9,5.2,3.9,7.2
	c2,2,4.5,3.3,7.2,3.9c0.4,0.1,0.9,0,1.2-0.4l1.8-1.8l-3.4-2.2l-1.5,1.3C10,12,9.9,12,9.7,12c-1.3-0.5-2.5-1.3-3.4-2.3
	c-1-1-1.8-2.1-2.3-3.4C4,6.1,4,6,4.2,5.8l1.2-1.5L3.2,0.9z"/>
</svg>
