<?xml version="1.0" encoding="utf-8"?>
<!-- Generator: Adobe Illustrator 26.0.1, SVG Export Plug-In . SVG Version: 6.00 Build 0)  -->
<svg version="1.1" id="search_icon" xmlns="http://www.w3.org/2000/svg" xmlns:xlink="http://www.w3.org/1999/xlink" x="0px"
	 y="0px" viewBox="0 0 18 18" style="enable-background:new 0 0 18 18;" xml:space="preserve">
<path d="M7.3,1.2c3.4,0,6.2,2.8,6.2,6.2c0,3.4-2.8,6.2-6.2,6.2c-3.4,0-6.2-2.8-6.2-6.2c0,0,0,0,0,0C1.2,3.9,3.9,1.2,7.3,1.2 M7.3,0
	C3.3,0,0,3.3,0,7.3s3.3,7.3,7.3,7.3s7.3-3.3,7.3-7.3l0,0C14.7,3.3,11.4,0,7.3,0z M17.8,17l-4.2-4.2l-0.8,0.8l4.2,4.2
	c0.2,0.2,0.6,0.2,0.8,0S18.1,17.3,17.8,17z"/>
</svg>
