<?xml version="1.0" encoding="utf-8"?>
<!-- Generator: Adobe Illustrator 26.0.1, SVG Export Plug-In . SVG Version: 6.00 Build 0)  -->
<svg version="1.1" id="Layer_1" xmlns="http://www.w3.org/2000/svg" xmlns:xlink="http://www.w3.org/1999/xlink" x="0px" y="0px"
	 viewBox="0 0 15 15" style="enable-background:new 0 0 15 15;" xml:space="preserve">
<path d="M15,5.7c-0.1-0.1-0.2-0.2-0.3-0.2H9.6L7.8,0.7C7.8,0.5,7.6,0.5,7.4,0.5c-0.1,0-0.2,0.1-0.2,0.2L5.4,5.5H0.4
	C0.2,5.5,0.1,5.6,0,5.7C0,5.9,0,6,0.1,6.1l4,3L2.3,14c-0.1,0.1,0,0.3,0.1,0.4c0.1,0.1,0.3,0.1,0.4,0l4.7-2.7l4.7,2.7
	c0.1,0.1,0.3,0.1,0.4,0c0.1-0.1,0.2-0.2,0.1-0.4l-1.8-4.9l4-3C15,6,15,5.9,15,5.7L15,5.7z"/>
</svg>
