<?xml version="1.0" encoding="utf-8"?>
<!-- Generator: Adobe Illustrator 26.0.1, SVG Export Plug-In . SVG Version: 6.00 Build 0)  -->
<svg version="1.1" id="Layer_1" xmlns="http://www.w3.org/2000/svg" xmlns:xlink="http://www.w3.org/1999/xlink" x="0px" y="0px"
	 viewBox="0 0 15 15" style="enable-background:new 0 0 15 15;" xml:space="preserve">
<path id="star" transform="translate(-3.008 -3.604)" d="M10.5,6.3L9.4,9.4c-0.1,0.4-0.5,0.7-0.9,0.7H5.3L7.7,12
	c0.3,0.3,0.5,0.7,0.3,1.1l-1.2,3.2l3.1-1.8c0.3-0.2,0.7-0.2,1,0l3.1,1.8L13,13.1c-0.1-0.4,0-0.9,0.3-1.1l2.4-1.9h-3.2
	c-0.4,0-0.8-0.3-0.9-0.7L10.5,6.3 M10.5,4.1c0.2,0,0.3,0.1,0.3,0.2l1.7,4.8h5.1c0.2,0,0.3,0.1,0.3,0.2c0.1,0.1,0,0.3-0.1,0.4l-4,3
	l1.8,4.9c0.1,0.1,0,0.3-0.1,0.4c-0.1,0.1-0.3,0.1-0.4,0l-4.6-2.7l-4.6,2.7c-0.1,0.1-0.3,0.1-0.4,0c-0.1-0.1-0.2-0.2-0.1-0.4l1.8-4.9
	l-4-3C3,9.6,3,9.5,3,9.3c0.1-0.1,0.2-0.2,0.3-0.2h5.1l1.7-4.8C10.2,4.2,10.4,4.1,10.5,4.1z"/>
</svg>
